<svg xmlns="http://www.w3.org/2000/svg" xmlns:xlink="http://www.w3.org/1999/xlink" width="1080" zoomAndPan="magnify" viewBox="0 0 810 809.999993" height="1080" preserveAspectRatio="xMidYMid meet" version="1.0"><defs><g/></defs><g fill="#ffffff" fill-opacity="1"><g transform="translate(213.302206, 595.49879)"><g><path d="M -87.4375 -28.140625 C -84.921875 -20.101562 -13.566406 -35.175781 21.105469 -37.1875 C 21.105469 -37.1875 129.648438 -47.738281 130.652344 -48.242188 C 131.15625 -48.742188 131.15625 -49.75 130.652344 -50.753906 C 129.144531 -53.265625 124.621094 -51.757812 122.109375 -52.261719 C 114.070312 -52.761719 112.5625 -57.789062 103.015625 -55.777344 C 99.496094 -55.277344 97.488281 -55.277344 97.488281 -56.28125 C 96.984375 -58.792969 115.074219 -56.785156 116.078125 -58.792969 C 116.582031 -59.796875 116.078125 -60.804688 115.074219 -61.304688 C 114.070312 -61.808594 113.0625 -61.808594 112.058594 -61.808594 C 107.535156 -62.3125 105.023438 -64.320312 103.515625 -64.824219 C 100.5 -65.828125 36.683594 -60.804688 21.105469 -60.300781 C 16.082031 -59.796875 12.058594 -58.289062 17.085938 -67.335938 C 38.691406 -106.027344 57.789062 -120.601562 58.289062 -124.621094 C 58.792969 -126.632812 57.789062 -128.140625 59.796875 -130.652344 L 61.808594 -132.160156 C 63.316406 -134.167969 61.304688 -134.167969 59.296875 -133.667969 C 53.769531 -131.65625 59.796875 -137.6875 62.3125 -137.6875 C 68.339844 -137.6875 92.964844 -170.851562 107.535156 -186.933594 L 138.191406 -220.097656 C 151.757812 -230.148438 153.265625 -235.675781 179.394531 -259.292969 C 224.117188 -299.496094 219.597656 -293.464844 228.136719 -301.503906 C 230.148438 -304.015625 230.148438 -309.542969 239.195312 -313.566406 C 263.3125 -324.117188 287.433594 -345.726562 306.027344 -346.730469 C 316.078125 -347.234375 317.082031 -345.222656 315.070312 -335.675781 C 313.0625 -327.132812 306.027344 -320.097656 301.003906 -313.566406 C 298.488281 -311.050781 304.519531 -307.535156 306.53125 -305.523438 C 308.035156 -304.519531 309.042969 -304.015625 311.050781 -306.53125 C 317.082031 -315.070312 326.128906 -331.152344 327.132812 -342.207031 C 327.132812 -344.21875 325.625 -354.269531 318.589844 -357.785156 C 298.488281 -368.839844 274.871094 -353.261719 255.777344 -340.199219 C 162.8125 -276.378906 172.863281 -274.871094 152.261719 -258.289062 C 130.148438 -240.199219 133.667969 -240.199219 132.660156 -236.179688 C 132.160156 -234.167969 127.132812 -231.152344 125.125 -231.65625 C 123.113281 -232.160156 117.085938 -225.625 118.089844 -224.117188 C 118.589844 -223.617188 118.089844 -223.113281 117.085938 -223.113281 C 114.070312 -222.609375 81.910156 -186.933594 80.402344 -181.90625 C 79.898438 -179.898438 75.878906 -180.902344 75.878906 -179.394531 C 75.878906 -176.378906 43.71875 -142.210938 12.5625 -98.492188 C -19.09375 -54.269531 -6.53125 -50.753906 -72.359375 -50.753906 C -75.878906 -50.753906 -81.910156 -49.246094 -85.425781 -50.753906 C -86.933594 -51.253906 -90.453125 -54.773438 -92.964844 -52.761719 C -92.460938 -49.246094 -95.980469 -48.242188 -97.488281 -47.738281 C -105.023438 -44.21875 -96.984375 -30.152344 -90.453125 -30.152344 C -89.445312 -30.152344 -87.9375 -29.144531 -87.4375 -28.140625 Z M 240.199219 -320.601562 C 241.203125 -322.609375 242.207031 -322.609375 242.207031 -320.601562 C 242.207031 -319.59375 238.691406 -318.589844 240.199219 -320.601562 Z M -4.523438 -57.789062 C -6.03125 -57.285156 25.628906 -107.035156 56.785156 -145.226562 C 88.945312 -184.421875 77.386719 -176.882812 161.304688 -257.285156 C 216.582031 -310.046875 256.277344 -330.148438 207.03125 -293.464844 C 159.796875 -258.289062 73.867188 -167.335938 81.910156 -167.335938 C 83.917969 -167.335938 84.921875 -164.320312 80.902344 -165.324219 C 73.867188 -167.335938 -1.507812 -59.296875 -4.523438 -57.789062 Z M 99.496094 -184.921875 C 98.492188 -185.929688 102.511719 -189.949219 103.515625 -189.949219 C 105.527344 -190.449219 100.5 -184.421875 99.496094 -184.921875 Z M 69.847656 -150.25 C 67.839844 -151.757812 73.867188 -156.28125 73.867188 -152.761719 C 73.867188 -150.753906 71.355469 -149.246094 69.847656 -150.25 Z M 87.4375 -60.804688 C 83.917969 -61.808594 93.96875 -61.808594 91.457031 -60.804688 C 90.453125 -60.300781 88.945312 -60.300781 87.4375 -60.804688 Z M 70.855469 -53.769531 C 60.300781 -54.773438 78.390625 -57.789062 75.878906 -54.269531 C 75.878906 -53.769531 73.367188 -53.265625 70.855469 -53.769531 Z M 48.742188 -53.265625 C 47.234375 -54.773438 62.3125 -55.277344 62.3125 -53.265625 C 62.3125 -51.253906 50.753906 -51.253906 48.742188 -53.265625 Z M 13.566406 -49.246094 C 10.550781 -52.261719 24.621094 -50.25 26.128906 -52.261719 C 27.136719 -53.769531 35.679688 -53.265625 32.664062 -51.253906 C 29.144531 -49.246094 15.074219 -47.738281 13.566406 -49.246094 Z M 106.53125 -51.253906 C 103.015625 -51.757812 115.074219 -52.261719 111.558594 -51.253906 C 110.550781 -50.753906 108.039062 -50.753906 106.53125 -51.253906 Z M 106.53125 -51.253906 "/></g></g></g><g fill="#ffffff" fill-opacity="1"><g transform="translate(394.707171, 668.017637)"><g><path d="M 240.910156 -286.976562 L 240.152344 -287.730469 L 239.398438 -288.488281 C 234.867188 -292.261719 236.378906 -295.285156 231.089844 -296.039062 C 225.804688 -296.792969 219.007812 -293.019531 214.476562 -291.507812 C 203.90625 -288.488281 193.332031 -283.957031 182.757812 -279.425781 C 174.453125 -276.402344 166.898438 -272.628906 159.347656 -269.605469 C 145.753906 -262.054688 132.160156 -255.257812 118.566406 -246.195312 C 107.992188 -239.398438 97.421875 -233.355469 87.601562 -224.292969 C 83.070312 -220.519531 79.296875 -215.988281 74.007812 -212.964844 C 73.253906 -215.230469 74.007812 -216.742188 75.519531 -218.253906 C 76.273438 -219.761719 77.785156 -221.273438 79.296875 -222.785156 C 83.828125 -225.804688 87.601562 -230.335938 91.378906 -234.113281 C 94.398438 -237.132812 95.15625 -243.929688 99.6875 -242.417969 C 103.460938 -242.417969 104.21875 -243.175781 102.707031 -245.441406 C 101.953125 -247.707031 102.707031 -248.460938 104.21875 -247.707031 C 107.238281 -245.441406 111.769531 -252.238281 109.503906 -256.011719 C 108.75 -257.523438 109.503906 -258.277344 111.769531 -257.523438 C 119.320312 -255.257812 122.34375 -268.097656 117.8125 -264.320312 C 114.789062 -262.808594 112.523438 -266.585938 122.34375 -270.363281 C 131.40625 -274.894531 124.609375 -274.894531 135.9375 -287.730469 C 145.753906 -298.304688 142.734375 -302.082031 145.753906 -300.570312 C 148.773438 -299.058594 181.25 -345.128906 188.800781 -354.1875 C 198.617188 -367.027344 213.722656 -379.109375 212.964844 -397.234375 C 212.964844 -404.789062 214.476562 -405.542969 219.007812 -405.542969 C 226.558594 -406.296875 251.480469 -428.199219 233.355469 -431.21875 C 222.785156 -434.242188 211.457031 -431.976562 201.640625 -419.136719 C 156.328125 -360.230469 109.503906 -301.324219 65.703125 -241.664062 C 49.84375 -220.519531 33.984375 -199.375 20.390625 -176.71875 C 13.59375 -166.144531 -3.777344 -141.976562 0.753906 -129.140625 C 3.019531 -124.609375 15.105469 -119.320312 12.082031 -113.28125 C 14.347656 -114.035156 15.859375 -115.546875 17.371094 -117.054688 C 29.453125 -129.894531 49.089844 -145.753906 48.332031 -164.632812 C 52.109375 -164.632812 54.375 -166.898438 55.886719 -169.921875 L 60.417969 -177.472656 C 62.683594 -179.738281 64.949219 -180.492188 67.96875 -182.003906 C 70.234375 -183.515625 72.5 -185.78125 74.765625 -188.046875 L 87.601562 -198.617188 C 89.113281 -199.375 95.910156 -181.25 96.664062 -180.492188 C 102.707031 -174.453125 101.953125 -165.390625 106.484375 -157.835938 C 109.503906 -152.550781 112.523438 -146.507812 112.523438 -140.46875 C 115.546875 -139.710938 117.8125 -138.203125 119.320312 -135.9375 C 128.382812 -122.34375 148.019531 -120.078125 161.613281 -112.523438 C 163.878906 -111.769531 176.71875 -108.75 173.695312 -116.300781 C 172.1875 -118.566406 166.144531 -118.566406 163.878906 -120.078125 C 160.101562 -123.097656 157.082031 -127.628906 154.816406 -132.160156 C 151.039062 -124.609375 141.222656 -141.222656 138.203125 -147.265625 C 139.710938 -145 143.488281 -142.734375 145 -141.222656 C 148.019531 -138.203125 150.285156 -135.179688 153.304688 -133.671875 L 144.242188 -148.019531 C 138.957031 -155.570312 134.425781 -163.125 130.648438 -170.675781 C 122.34375 -187.289062 120.832031 -206.171875 114.035156 -222.785156 C 119.320312 -228.070312 125.363281 -232.601562 132.160156 -236.378906 C 138.203125 -240.152344 145.753906 -241.664062 152.550781 -244.683594 C 161.613281 -249.214844 169.921875 -256.011719 179.738281 -259.035156 C 187.289062 -261.300781 195.597656 -262.054688 203.148438 -264.320312 C 211.457031 -265.832031 215.988281 -272.628906 223.539062 -276.402344 C 226.558594 -277.914062 229.582031 -278.667969 233.355469 -278.667969 L 234.867188 -268.851562 C 237.886719 -271.117188 237.886719 -275.648438 239.398438 -278.667969 C 240.152344 -281.691406 242.417969 -284.710938 240.910156 -286.976562 Z M 214.476562 -280.933594 C 190.3125 -274.136719 185.78125 -269.605469 175.960938 -266.585938 C 172.941406 -265.832031 142.734375 -249.214844 141.976562 -247.707031 C 141.222656 -246.195312 138.957031 -245.441406 137.445312 -245.441406 C 121.585938 -246.195312 206.925781 -286.976562 225.804688 -287.730469 C 229.582031 -287.730469 226.558594 -283.957031 214.476562 -280.933594 Z M 33.230469 -160.101562 C 35.496094 -163.878906 37.003906 -163.125 37.003906 -160.859375 C 37.003906 -159.347656 31.71875 -157.082031 33.230469 -160.101562 Z M 33.230469 -160.101562 "/></g></g></g><g fill="#4aad6c" fill-opacity="1"><g transform="translate(-17.598271, 619.124989)"><g><path d="M 127.5 -2.59375 C 129 -2.007812 130.0625 -0.914062 130.6875 0.6875 C 131.320312 2.300781 131.007812 4.257812 129.75 6.5625 C 128.019531 9.894531 125.375 11.90625 121.8125 12.59375 C 121.582031 12.59375 121.347656 12.59375 121.109375 12.59375 C 120.535156 12.9375 120.019531 13.109375 119.5625 13.109375 C 115.195312 12.078125 110.882812 11.160156 106.625 10.359375 C 101.332031 9.660156 96.097656 8.59375 90.921875 7.15625 C 85.742188 5.71875 80.859375 3.617188 76.265625 0.859375 C 67.628906 -5.234375 63.570312 -16.878906 64.09375 -34.078125 C 64.613281 -51.273438 67.660156 -70.679688 73.234375 -92.296875 C 78.816406 -113.921875 84.941406 -134.222656 91.609375 -153.203125 C 98.285156 -172.179688 103.691406 -186.503906 107.828125 -196.171875 C 111.285156 -205.023438 114.160156 -213.707031 116.453125 -222.21875 C 117.722656 -227.625 115.941406 -230.785156 111.109375 -231.703125 C 109.148438 -232.285156 107.019531 -232.460938 104.71875 -232.234375 C 101.382812 -232.234375 98.539062 -232.660156 96.1875 -233.515625 C 93.832031 -234.378906 92.769531 -236.710938 93 -240.515625 C 93.226562 -243.503906 94.488281 -246.085938 96.78125 -248.265625 C 99.082031 -250.453125 101.613281 -252.523438 104.375 -254.484375 C 106.675781 -255.742188 108.691406 -257.179688 110.421875 -258.796875 C 127.328125 -273.398438 140.84375 -290.597656 150.96875 -310.390625 C 164.425781 -337.179688 176.960938 -364.898438 188.578125 -393.546875 C 195.941406 -411.484375 203.53125 -429.195312 211.34375 -446.6875 C 214.457031 -452.664062 217.910156 -458.585938 221.703125 -464.453125 C 233.546875 -482.171875 247.0625 -487.632812 262.25 -480.84375 C 263.050781 -480.5 263.625 -479.835938 263.96875 -478.859375 C 264.3125 -477.878906 264.484375 -476.875 264.484375 -475.84375 C 264.484375 -474.570312 264.050781 -473.421875 263.1875 -472.390625 C 262.332031 -471.359375 261.269531 -470.609375 260 -470.140625 C 254.363281 -468.078125 249.273438 -464.914062 244.734375 -460.65625 C 240.191406 -456.40625 236.941406 -451.863281 234.984375 -447.03125 C 228.085938 -431.84375 221.128906 -414.757812 214.109375 -395.78125 C 207.441406 -377.84375 200.195312 -359.613281 192.375 -341.09375 C 184.550781 -322.570312 175.835938 -305.347656 166.234375 -289.421875 C 156.628906 -273.492188 145.734375 -260.46875 133.546875 -250.34375 C 134.347656 -249.3125 135.09375 -248.445312 135.78125 -247.75 C 137.050781 -246.257812 138.488281 -244.992188 140.09375 -243.953125 C 146.414062 -238.898438 147.910156 -231.65625 144.578125 -222.21875 C 141.015625 -211.863281 136.070312 -198.578125 129.75 -182.359375 C 123.1875 -165.679688 116.484375 -147.738281 109.640625 -128.53125 C 102.796875 -109.320312 97.300781 -90.914062 93.15625 -73.3125 C 89.019531 -55.71875 87.582031 -40.851562 88.84375 -28.71875 C 90.113281 -16.59375 95.640625 -9.148438 105.421875 -6.390625 C 107.710938 -5.804688 110.644531 -5.398438 114.21875 -5.171875 C 119.507812 -4.710938 123.9375 -3.851562 127.5 -2.59375 Z M 127.5 -2.59375 "/></g></g></g><g fill="#4aad6c" fill-opacity="1"><g transform="translate(568.464815, 631.889899)"><g><path d="M 162.71875 -467.453125 C 160.875 -468.140625 159.722656 -469.316406 159.265625 -470.984375 C 158.804688 -472.648438 159.035156 -474.628906 159.953125 -476.921875 C 162.023438 -479.910156 164.722656 -481.8125 168.046875 -482.625 C 168.285156 -482.625 168.519531 -482.738281 168.75 -482.96875 C 169.550781 -483.195312 170.066406 -483.195312 170.296875 -482.96875 C 174.546875 -482.15625 178.851562 -481.40625 183.21875 -480.71875 C 188.738281 -479.6875 194.082031 -478.535156 199.25 -477.265625 C 204.425781 -476.003906 209.195312 -473.992188 213.5625 -471.234375 C 222.0625 -465.148438 226.082031 -453.457031 225.625 -436.15625 C 225.164062 -418.863281 222.207031 -399.472656 216.75 -377.984375 C 211.289062 -356.503906 205.140625 -336.195312 198.296875 -317.0625 C 191.460938 -297.925781 186.035156 -283.59375 182.015625 -274.0625 C 178.679688 -265.4375 175.925781 -256.703125 173.75 -247.859375 C 172.132812 -242.578125 173.851562 -239.414062 178.90625 -238.375 C 180.75 -238.144531 182.820312 -238.03125 185.125 -238.03125 C 188.332031 -238.257812 191.144531 -237.941406 193.5625 -237.078125 C 195.976562 -236.222656 197.1875 -233.898438 197.1875 -230.109375 C 196.957031 -226.773438 195.691406 -224.046875 193.390625 -221.921875 C 191.085938 -219.796875 188.445312 -217.8125 185.46875 -215.96875 C 183.394531 -214.476562 181.5 -212.984375 179.78125 -211.484375 C 162.539062 -196.773438 148.863281 -179.597656 138.75 -159.953125 C 125.425781 -133.066406 113.070312 -105.488281 101.6875 -77.21875 C 94.101562 -59.289062 86.347656 -41.59375 78.421875 -24.125 C 75.660156 -17.8125 72.269531 -11.722656 68.25 -5.859375 C 56.414062 11.492188 43.03125 16.894531 28.09375 10.34375 C 27.289062 9.882812 26.71875 9.132812 26.375 8.09375 C 26.03125 7.0625 25.859375 6.03125 25.859375 5 C 25.859375 3.738281 26.285156 2.617188 27.140625 1.640625 C 28.003906 0.660156 28.953125 -0.113281 29.984375 -0.6875 C 35.734375 -2.644531 40.816406 -5.773438 45.234375 -10.078125 C 49.660156 -14.390625 53.023438 -18.84375 55.328125 -23.4375 C 61.878906 -38.601562 68.71875 -55.671875 75.84375 -74.640625 C 82.625 -92.554688 89.945312 -110.796875 97.8125 -129.359375 C 105.6875 -147.921875 114.421875 -165.097656 124.015625 -180.890625 C 133.609375 -196.691406 144.492188 -209.765625 156.671875 -220.109375 C 155.640625 -220.910156 154.722656 -221.828125 153.921875 -222.859375 C 152.660156 -224.359375 151.394531 -225.625 150.125 -226.65625 C 143.8125 -231.476562 142.316406 -238.660156 145.640625 -248.203125 C 149.203125 -258.546875 154.144531 -271.703125 160.46875 -287.671875 C 167.019531 -304.566406 173.710938 -322.578125 180.546875 -341.703125 C 187.390625 -360.835938 192.878906 -379.164062 197.015625 -396.6875 C 201.148438 -414.21875 202.523438 -429.070312 201.140625 -441.25 C 199.765625 -453.425781 194.25 -460.894531 184.59375 -463.65625 C 182.414062 -464.113281 179.546875 -464.628906 175.984375 -465.203125 C 170.347656 -465.660156 165.925781 -466.410156 162.71875 -467.453125 Z M 162.71875 -467.453125 "/></g></g></g></svg>